<svg xmlns="http://www.w3.org/2000/svg" viewBox="0 0 87.7 163.8"><path fill="#c2d5ef" d="M0 123.9v26.4l26.2 13.5v-27.1z"/><path fill="#dcecff" d="M47 122.8v27.5l-20.8 13.5v-26z"/><path fill="#628fea" d="M53.2 58.8L0 90.6l26.2 13.7 57.2-35z"/><path fill="#92b4ea" d="M0 90.5V124l26.2 13.8v-33.5z"/><path fill="#4575ba" d="M26.2 104.3l61.5-38.1v30.1l-61.5 41.5z"/><path fill="#88cbe5" d="M0 13.7L25.9 0l61.8 35.1-23.1 15.8z"/><path fill="#4ba5d1" d="M0 13.7v28.4l64.3 38.6.6-30.3z"/><path fill="#9fdaed" d="M87.6 35.1v31.2L64.3 80.8l.1-30.7z"/><path d="M87.7 35v31.2m0-31.1v31" fill="#5ac1d8"/></svg>